<?xml version="1.0" encoding="utf-8"?>
<!-- Generator: Adobe Illustrator 19.1.0, SVG Export Plug-In . SVG Version: 6.00 Build 0)  -->
<svg version="1.1" id="Layer_1" xmlns="http://www.w3.org/2000/svg" xmlns:xlink="http://www.w3.org/1999/xlink" x="0px" y="0px"
	 viewBox="-210 388 89.5 18" style="enable-background:new -210 388 89.5 18;" xml:space="preserve">
<style type="text/css">
	.st0{fill:#8A8A8A;}
</style>
<g>
	<path class="st0" d="M-200.8,391c-0.7-0.6-1.5-0.9-2.4-0.9c-1.5,0-2.3,1.1-2.3,2.3c0,1.1,0.9,1.8,1.9,2.4c1.2,0.8,2.5,1.6,2.5,3.4
		c0,1.8-1.2,3.8-4,3.8c-1.4,0-2.8-0.6-3.8-1.4l0.7-1.1c0.9,0.7,2,1.2,3,1.2c1.8,0,2.6-1,2.6-2.3c0-1.3-1-1.9-2.1-2.6
		c-1.1-0.7-2.2-1.5-2.2-3.2c0-2,1.5-3.7,3.9-3.7c1.1,0,2.2,0.5,2.9,1L-200.8,391z"/>
	<path class="st0" d="M-199.8,398.9c0-2.2,1.7-4.6,4.1-4.6c1.8,0,2.7,1.4,2.7,2.9c0,0.4-0.1,0.8-0.2,1.1h-5.3c0,0.1,0,0.3,0,0.4
		c0,1.3,0.8,1.9,2.1,1.9c0.6,0,1.2-0.1,1.9-0.4l0.2,1.1c-0.7,0.3-1.2,0.4-2.3,0.4C-198.3,401.9-199.8,401.1-199.8,398.9z
		 M-194.4,397.3c0-0.1,0-0.2,0-0.3c0-0.9-0.6-1.5-1.5-1.5c-1,0-1.9,0.8-2.4,1.8H-194.4z"/>
	<path class="st0" d="M-186,397.7l-0.8,4.1h-1.3l0.1-0.7c-0.6,0.5-1.2,0.9-2.2,0.9c-1.1,0-2.2-0.8-2.2-2.1c0-1.4,1.1-2.5,2.9-2.5
		c0.9,0,1.5,0.3,2,0.6l0.1-0.5c0-0.1,0.1-0.4,0.1-0.6c0-0.7-0.5-1.3-1.4-1.3c-0.5,0-1.2,0.1-1.9,0.4l-0.1-1.2
		c0.7-0.2,1.5-0.4,2.2-0.4c1.4,0,2.5,0.6,2.5,2.3C-185.9,397-185.9,397.3-186,397.7z M-189.4,398.4c-0.9,0-1.6,0.5-1.6,1.3
		c0,0.7,0.4,1.1,1.3,1.1c0.8,0,1.4-0.4,1.9-0.9l0.2-1C-188,398.6-188.7,398.4-189.4,398.4z"/>
	<path class="st0" d="M-180.3,395.7L-180.3,395.7c-1.1,0-1.6,0.3-2.3,1.1l-1,5h-1.4l1.4-7.3h1.3l-0.2,1.2c0.6-0.9,1.4-1.4,2.4-1.4
		L-180.3,395.7z"/>
	<path class="st0" d="M-174,396.1c-0.5-0.3-1.1-0.6-1.9-0.6c-1.6,0-2.8,1.5-2.8,3.1c0,1.4,1,2.1,2.3,2.1c0.6,0,1.2-0.1,1.7-0.4
		l0.2,1.1c-0.7,0.3-1.4,0.5-2.2,0.5c-1.6,0-3.3-1.1-3.3-3.2c0-2.2,1.8-4.3,4.3-4.3c0.9,0,1.7,0.3,2.3,0.8L-174,396.1z"/>
	<path class="st0" d="M-166.1,397l-0.9,4.8h-1.4l0.9-4.6c0.1-0.2,0.1-0.4,0.1-0.6c0-0.7-0.4-1.1-1.1-1.1c-0.8,0-1.6,0.6-2.3,1.2
		l-1,5h-1.4l2.5-12.7h1.4l-1.3,6.6c0.9-0.8,1.9-1.3,2.8-1.3c1.2,0,1.8,0.8,1.8,1.9C-166,396.5-166.1,396.7-166.1,397z"/>
	<path class="st0" d="M-155.4,398.1c-0.5,2.3-1.5,3.8-3.9,3.8c-1.1,0-2.2-0.5-2.8-1l0.8-1c0.5,0.5,1.2,0.7,2,0.7
		c1.5,0,2.1-0.9,2.5-2.7l1.7-8.9h1.4L-155.4,398.1z"/>
	<path class="st0" d="M-148.1,400.7c-0.7,0.7-1.6,1.2-2.7,1.2c-1.7,0-2.8-1.2-2.8-3c0-1.2,0.5-2.5,1.4-3.4c0.7-0.7,1.6-1.2,2.7-1.2
		c1.7,0,2.8,1.2,2.8,3C-146.7,398.5-147.2,399.8-148.1,400.7z M-149.7,395.5c-0.6,0-1.2,0.3-1.6,0.8c-0.6,0.6-1,1.6-1,2.6
		c0,1.1,0.6,1.9,1.7,1.9c0.6,0,1.2-0.3,1.6-0.8c0.6-0.6,1-1.6,1-2.6C-148,396.3-148.6,395.5-149.7,395.5z"/>
	<path class="st0" d="M-142.5,401.9c-0.8,0-1.4-0.3-1.9-0.7l-0.1,0.5h-1.3l2.5-12.7h1.4l-1.1,5.9c0.5-0.4,1.2-0.6,2-0.6
		c1.7,0,2.7,1.4,2.7,3C-138.5,399.8-140.2,401.9-142.5,401.9z M-141.6,395.5c-0.6,0-1.3,0.3-1.8,0.7l-0.8,3.9c0.4,0.4,1,0.6,1.6,0.6
		c1.5,0,2.7-1.4,2.7-3.2C-139.8,396.3-140.5,395.5-141.6,395.5z"/>
	<path class="st0" d="M-132.8,396c-0.4-0.3-0.9-0.6-1.5-0.6c-0.9,0-1.4,0.4-1.4,1c0,0.5,0.6,0.8,1.2,1.1c1,0.5,1.6,0.9,1.6,1.9
		c0,1.5-1.3,2.4-2.7,2.4c-0.9,0-1.8-0.4-2.5-1l0.8-0.9c0.5,0.4,1.2,0.8,1.8,0.8c0.9,0,1.3-0.4,1.3-1.1c0-0.6-0.6-0.8-1.3-1.2
		c-0.9-0.4-1.5-0.8-1.5-1.8c0-1.4,1.3-2.3,2.7-2.3c0.8,0,1.5,0.3,2,0.7L-132.8,396z"/>
	<path class="st0" d="M-130.6,401.9c-0.5,0-0.9-0.4-0.9-0.8c0-0.5,0.4-0.9,0.9-0.9c0.5,0,0.9,0.4,0.9,0.9
		C-129.8,401.5-130.1,401.9-130.6,401.9z M-126.6,401.9c-0.5,0-0.9-0.4-0.9-0.8c0-0.5,0.4-0.9,0.9-0.9s0.9,0.4,0.9,0.9
		C-125.8,401.5-126.2,401.9-126.6,401.9z M-122.6,401.9c-0.5,0-0.9-0.4-0.9-0.8c0-0.5,0.4-0.9,0.9-0.9s0.9,0.4,0.9,0.9
		C-121.8,401.5-122.2,401.9-122.6,401.9z"/>
</g>
</svg>
