<?xml version="1.0" encoding="utf-8"?>
<!-- Generator: Adobe Illustrator 19.1.0, SVG Export Plug-In . SVG Version: 6.00 Build 0)  -->
<svg version="1.1" id="Layer_1" xmlns="http://www.w3.org/2000/svg" xmlns:xlink="http://www.w3.org/1999/xlink" x="0px" y="0px"
	 viewBox="-210 388 102.8 18" style="enable-background:new -210 388 102.8 18;" xml:space="preserve">
<style type="text/css">
	.st0{fill:#8A8A8A;}
</style>
<path class="st0" d="M-199.8,396.2c0,0.5-0.3,0.9-0.8,0.9h-4.7l2,2c0.2,0.1,0.3,0.3,0.3,0.5c0,0.2-0.1,0.4-0.3,0.6l-0.5,0.5
	c-0.2,0.2-0.4,0.3-0.6,0.3c-0.2,0-0.4-0.1-0.6-0.2l-4.4-4.4c-0.1-0.2-0.2-0.4-0.2-0.6c0-0.2,0.1-0.4,0.2-0.6l4.4-4.4
	c0.2-0.2,0.4-0.3,0.6-0.3c0.2,0,0.4,0.1,0.6,0.3l0.5,0.5c0.2,0.2,0.3,0.4,0.3,0.6c0,0.2-0.1,0.5-0.3,0.6l-2,2h4.7
	c0.5,0,0.8,0.4,0.8,0.9V396.2z"/>
<g>
	<path class="st0" d="M-187,390.8c-0.7-0.6-1.5-0.8-2.4-0.8c-1.5,0-2.3,1.1-2.3,2.3c0,1.1,0.9,1.7,1.9,2.4c1.2,0.8,2.4,1.6,2.4,3.4
		c0,1.8-1.2,3.7-4,3.7c-1.3,0-2.8-0.6-3.7-1.4l0.7-1.1c0.9,0.7,1.9,1.2,3,1.2c1.8,0,2.6-1,2.6-2.3c0-1.3-1-1.9-2.1-2.6
		c-1.1-0.7-2.2-1.5-2.2-3.1c0-1.9,1.5-3.7,3.9-3.7c1.1,0,2.2,0.4,2.9,1L-187,390.8z"/>
	<path class="st0" d="M-186,398.7c0-2.2,1.7-4.6,4.1-4.6c1.8,0,2.7,1.3,2.7,2.9c0,0.4-0.1,0.8-0.2,1.1h-5.2c0,0.1,0,0.3,0,0.4
		c0,1.3,0.8,1.9,2.1,1.9c0.6,0,1.2-0.1,1.9-0.4l0.2,1.1c-0.7,0.3-1.2,0.4-2.2,0.4C-184.5,401.7-186,400.9-186,398.7z M-180.7,397.2
		c0-0.1,0-0.2,0-0.3c0-0.9-0.6-1.5-1.5-1.5c-1,0-1.9,0.8-2.3,1.8H-180.7z"/>
	<path class="st0" d="M-172.3,397.5l-0.8,4.1h-1.3l0.1-0.7c-0.6,0.5-1.2,0.9-2.1,0.9c-1.1,0-2.2-0.8-2.2-2.1c0-1.4,1.1-2.5,2.9-2.5
		c0.8,0,1.5,0.3,1.9,0.6l0.1-0.4c0-0.1,0.1-0.4,0.1-0.6c0-0.7-0.5-1.3-1.4-1.3c-0.5,0-1.2,0.1-1.9,0.4l-0.1-1.2
		c0.7-0.2,1.4-0.4,2.2-0.4c1.4,0,2.5,0.6,2.5,2.3C-172.2,396.8-172.3,397.1-172.3,397.5z M-175.7,398.2c-0.9,0-1.6,0.5-1.6,1.3
		c0,0.7,0.4,1.1,1.3,1.1c0.8,0,1.3-0.4,1.9-0.9l0.2-1C-174.3,398.4-175,398.2-175.7,398.2z"/>
	<path class="st0" d="M-166.7,395.5L-166.7,395.5c-1.1,0-1.6,0.3-2.3,1.1l-0.9,4.9h-1.4l1.4-7.2h1.3l-0.2,1.2
		c0.6-0.8,1.4-1.3,2.4-1.3L-166.7,395.5z"/>
	<path class="st0" d="M-160.4,395.9c-0.5-0.3-1.1-0.6-1.9-0.6c-1.6,0-2.7,1.4-2.7,3.1c0,1.4,1,2.1,2.2,2.1c0.6,0,1.2-0.1,1.7-0.4
		l0.2,1.1c-0.7,0.3-1.3,0.5-2.2,0.5c-1.6,0-3.2-1.1-3.2-3.2c0-2.2,1.8-4.3,4.3-4.3c0.9,0,1.7,0.3,2.3,0.8L-160.4,395.9z"/>
	<path class="st0" d="M-152.6,396.8l-0.9,4.8h-1.4l0.9-4.6c0.1-0.2,0.1-0.4,0.1-0.6c0-0.7-0.4-1.1-1.1-1.1c-0.8,0-1.6,0.6-2.3,1.2
		l-1,5h-1.4l2.4-12.6h1.4l-1.3,6.6c0.9-0.8,1.8-1.3,2.8-1.3c1.2,0,1.8,0.8,1.8,1.9C-152.5,396.3-152.5,396.5-152.6,396.8z"/>
	<path class="st0" d="M-141.9,397.9c-0.4,2.3-1.5,3.8-3.8,3.8c-1.1,0-2.1-0.4-2.7-1l0.8-1c0.5,0.4,1.2,0.7,2,0.7
		c1.5,0,2.1-0.9,2.4-2.7l1.7-8.9h1.4L-141.9,397.9z"/>
	<path class="st0" d="M-134.7,400.5c-0.7,0.7-1.6,1.2-2.7,1.2c-1.7,0-2.8-1.2-2.8-3c0-1.2,0.5-2.5,1.4-3.4c0.7-0.7,1.6-1.2,2.7-1.2
		c1.7,0,2.8,1.2,2.8,3C-133.3,398.3-133.8,399.6-134.7,400.5z M-136.2,395.3c-0.6,0-1.2,0.3-1.6,0.8c-0.6,0.6-1,1.6-1,2.6
		c0,1.1,0.6,1.9,1.7,1.9c0.6,0,1.2-0.3,1.6-0.8c0.6-0.6,1-1.6,1-2.6C-134.5,396.1-135.2,395.3-136.2,395.3z"/>
	<path class="st0" d="M-129,401.7c-0.8,0-1.4-0.3-1.9-0.7l-0.1,0.5h-1.3l2.4-12.6h1.4l-1.1,5.9c0.5-0.4,1.2-0.6,2-0.6
		c1.7,0,2.7,1.4,2.7,3C-125.1,399.6-126.8,401.7-129,401.7z M-128.2,395.3c-0.6,0-1.3,0.3-1.7,0.7l-0.8,3.9c0.4,0.4,1,0.6,1.6,0.6
		c1.5,0,2.7-1.4,2.7-3.2C-126.4,396.1-127.1,395.3-128.2,395.3z"/>
	<path class="st0" d="M-119.4,395.9c-0.4-0.3-0.9-0.6-1.4-0.6c-0.9,0-1.3,0.4-1.3,1c0,0.5,0.6,0.8,1.2,1.1c1,0.5,1.6,0.9,1.6,1.9
		c0,1.5-1.3,2.4-2.7,2.4c-0.9,0-1.8-0.4-2.5-0.9l0.8-0.9c0.5,0.4,1.2,0.8,1.8,0.8c0.9,0,1.3-0.4,1.3-1.1c0-0.6-0.6-0.8-1.3-1.2
		c-0.8-0.4-1.5-0.8-1.5-1.8c0-1.4,1.3-2.3,2.7-2.3c0.8,0,1.5,0.3,2,0.7L-119.4,395.9z"/>
	<path class="st0" d="M-117.3,401.7c-0.5,0-0.8-0.4-0.8-0.8s0.4-0.8,0.8-0.8c0.5,0,0.8,0.4,0.8,0.8S-116.8,401.7-117.3,401.7z
		 M-113.3,401.7c-0.5,0-0.8-0.4-0.8-0.8s0.4-0.8,0.8-0.8c0.5,0,0.8,0.4,0.8,0.8S-112.8,401.7-113.3,401.7z M-109.3,401.7
		c-0.5,0-0.8-0.4-0.8-0.8s0.4-0.8,0.8-0.8c0.5,0,0.8,0.4,0.8,0.8S-108.9,401.7-109.3,401.7z"/>
</g>
</svg>
