<?xml version="1.0" encoding="utf-8"?>
<!-- Generator: Adobe Illustrator 19.0.1, SVG Export Plug-In . SVG Version: 6.00 Build 0)  -->
<svg version="1.1" id="Layer_1" xmlns="http://www.w3.org/2000/svg" xmlns:xlink="http://www.w3.org/1999/xlink" x="0px" y="0px"
	 viewBox="0 0 189.3 18" style="enable-background:new 0 0 189.3 18;" xml:space="preserve">
<style type="text/css">
	.st0{fill:#8A8A8A;}
</style>
<g>
	<path class="st0" d="M23.1,2.7c-0.7-0.6-1.5-0.9-2.4-0.9c-1.6,0-2.4,1.1-2.4,2.3c0,1.2,0.9,1.8,1.9,2.4c1.2,0.8,2.5,1.6,2.5,3.5
		c0,1.9-1.2,3.8-4.1,3.8c-1.4,0-2.8-0.6-3.8-1.4l0.8-1.1c0.9,0.8,2,1.2,3.1,1.2c1.9,0,2.6-1,2.6-2.3c0-1.3-1.1-2-2.1-2.7
		C18,6.8,16.8,6,16.8,4.3c0-2,1.6-3.8,4-3.8c1.1,0,2.2,0.5,3,1.1L23.1,2.7z"/>
	<path class="st0" d="M24.1,10.8c0-2.2,1.7-4.7,4.2-4.7C30,6.1,31,7.5,31,9.1c0,0.4-0.1,0.8-0.2,1.2h-5.4c0,0.1,0,0.3,0,0.4
		c0,1.4,0.8,2,2.1,2c0.6,0,1.2-0.1,1.9-0.4l0.2,1.1c-0.7,0.3-1.2,0.4-2.3,0.4C25.6,13.9,24.1,13,24.1,10.8z M29.6,9.2
		c0-0.1,0-0.2,0-0.4c0-0.9-0.6-1.5-1.5-1.5c-1,0-1.9,0.8-2.4,1.9H29.6z"/>
	<path class="st0" d="M38.1,9.5l-0.8,4.2H36l0.1-0.7c-0.6,0.5-1.3,0.9-2.2,0.9c-1.2,0-2.2-0.8-2.2-2.2c0-1.4,1.2-2.5,3-2.5
		c0.9,0,1.6,0.3,2,0.6l0.1-0.5c0-0.1,0.1-0.4,0.1-0.6c0-0.7-0.5-1.3-1.4-1.3c-0.5,0-1.2,0.1-1.9,0.4l-0.1-1.2
		c0.7-0.2,1.5-0.4,2.2-0.4c1.4,0,2.6,0.6,2.6,2.4C38.3,8.8,38.2,9.2,38.1,9.5z M34.7,10.2c-0.9,0-1.7,0.5-1.7,1.4
		c0,0.7,0.4,1.2,1.3,1.2c0.8,0,1.4-0.4,1.9-0.9l0.2-1C36.1,10.5,35.4,10.2,34.7,10.2z"/>
	<path class="st0" d="M43.9,7.5L43.9,7.5c-1.1,0-1.7,0.3-2.3,1.1l-1,5.1h-1.4l1.5-7.4H42l-0.2,1.2c0.6-0.9,1.5-1.4,2.4-1.4L43.9,7.5
		z"/>
	<path class="st0" d="M50.4,7.9c-0.5-0.4-1.2-0.6-1.9-0.6c-1.6,0-2.8,1.5-2.8,3.2c0,1.4,1.1,2.2,2.3,2.2c0.6,0,1.2-0.1,1.7-0.4
		l0.2,1.1c-0.8,0.3-1.4,0.5-2.2,0.5c-1.6,0-3.3-1.1-3.3-3.3c0-2.2,1.8-4.4,4.4-4.4c0.9,0,1.8,0.4,2.4,0.8L50.4,7.9z"/>
	<path class="st0" d="M58.4,8.8l-1,4.9h-1.4L57,9c0.1-0.2,0.1-0.4,0.1-0.6c0-0.7-0.4-1.1-1.1-1.1c-0.8,0-1.6,0.6-2.3,1.3l-1,5.2
		h-1.4l2.5-13h1.4l-1.3,6.7c0.9-0.8,1.9-1.3,2.9-1.3c1.2,0,1.8,0.8,1.8,1.9C58.5,8.3,58.5,8.6,58.4,8.8z"/>
	<path class="st0" d="M67.3,9.2c-0.4,0-1,0-1.5-0.1L65,13.7h-1.4l2.5-12.9c0.6-0.1,1.3-0.2,2.1-0.2c3.2,0,4.7,1.8,4.7,3.9
		C72.9,7.3,70.9,9.2,67.3,9.2z M68.4,1.9c-0.5,0-0.8,0-1.1,0.1l-1.1,5.8C66.6,7.9,67.1,8,67.5,8c2.6,0,3.9-1.5,3.9-3.3
		C71.4,3.2,70.4,1.9,68.4,1.9z"/>
	<path class="st0" d="M72.4,10.8c0-2.2,1.7-4.7,4.2-4.7c1.8,0,2.7,1.4,2.7,2.9c0,0.4-0.1,0.8-0.2,1.2h-5.4c0,0.1,0,0.3,0,0.4
		c0,1.4,0.8,2,2.1,2c0.6,0,1.2-0.1,1.9-0.4l0.2,1.1c-0.7,0.3-1.2,0.4-2.3,0.4C73.9,13.9,72.4,13,72.4,10.8z M77.9,9.2
		c0-0.1,0-0.2,0-0.4c0-0.9-0.6-1.5-1.5-1.5c-1,0-1.9,0.8-2.4,1.9H77.9z"/>
	<path class="st0" d="M86,12.7c-0.7,0.7-1.6,1.2-2.7,1.2c-1.7,0-2.9-1.2-2.9-3c0-1.2,0.5-2.6,1.5-3.5c0.7-0.7,1.6-1.2,2.7-1.2
		c1.7,0,2.9,1.2,2.9,3C87.4,10.4,86.9,11.7,86,12.7z M84.4,7.3c-0.6,0-1.2,0.3-1.7,0.8c-0.6,0.6-1,1.6-1,2.6c0,1.2,0.6,1.9,1.7,1.9
		c0.6,0,1.2-0.3,1.7-0.8c0.6-0.6,1-1.6,1-2.6C86.1,8.1,85.5,7.3,84.4,7.3z"/>
	<path class="st0" d="M91.6,13.9c-0.7,0-1.3-0.2-1.8-0.5L89,17.5h-1.4l2.2-11.3h1.3l-0.2,0.8c0.7-0.6,1.4-0.9,2.2-0.9
		c1.4,0,2.7,1.3,2.7,3C95.8,11.7,94.1,13.9,91.6,13.9z M92.6,7.3c-0.8,0-1.3,0.3-1.8,0.8l-0.8,4c0.4,0.4,1,0.5,1.7,0.5
		c1.6,0,2.8-1.4,2.8-3.3C94.5,8.2,93.7,7.3,92.6,7.3z"/>
	<path class="st0" d="M98.2,13.7h-1.4l2.5-13h1.4L98.2,13.7z"/>
	<path class="st0" d="M100.7,10.8c0-2.2,1.7-4.7,4.2-4.7c1.8,0,2.7,1.4,2.7,2.9c0,0.4-0.1,0.8-0.2,1.2H102c0,0.1,0,0.3,0,0.4
		c0,1.4,0.8,2,2.1,2c0.6,0,1.2-0.1,1.9-0.4l0.2,1.1c-0.7,0.3-1.2,0.4-2.3,0.4C102.2,13.9,100.7,13,100.7,10.8z M106.2,9.2
		c0-0.1,0-0.2,0-0.4c0-0.9-0.6-1.5-1.5-1.5c-1,0-1.9,0.8-2.4,1.9H106.2z"/>
	<path class="st0" d="M118.6,9.5l-0.8,4.2h-1.3l0.1-0.7c-0.6,0.5-1.3,0.9-2.2,0.9c-1.2,0-2.2-0.8-2.2-2.2c0-1.4,1.2-2.5,3-2.5
		c0.9,0,1.6,0.3,2,0.6l0.1-0.5c0-0.1,0.1-0.4,0.1-0.6c0-0.7-0.5-1.3-1.4-1.3c-0.5,0-1.2,0.1-1.9,0.4l-0.1-1.2
		c0.7-0.2,1.5-0.4,2.2-0.4c1.4,0,2.6,0.6,2.6,2.4C118.7,8.8,118.6,9.2,118.6,9.5z M115.1,10.2c-0.9,0-1.7,0.5-1.7,1.4
		c0,0.7,0.4,1.2,1.3,1.2c0.8,0,1.4-0.4,1.9-0.9l0.2-1C116.5,10.5,115.8,10.2,115.1,10.2z"/>
	<path class="st0" d="M126.8,8.8l-1,4.9h-1.4l0.9-4.7c0.1-0.2,0.1-0.4,0.1-0.6c0-0.7-0.4-1.1-1.1-1.1c-0.8,0-1.6,0.6-2.3,1.3l-1,5.2
		h-1.4l1.5-7.4h1.3l-0.2,1.2c0.9-0.8,2-1.4,2.9-1.4c1.2,0,1.8,0.8,1.8,1.9C126.9,8.3,126.9,8.6,126.8,8.8z"/>
	<path class="st0" d="M134.2,13.7h-1.3l0.1-0.5c-0.5,0.4-1.2,0.7-2,0.7c-1.5,0-2.8-1.3-2.8-3.1c0-2.4,1.8-4.6,4.2-4.6
		c0.7,0,1.4,0.3,1.8,0.5l1.1-5.9h1.4L134.2,13.7z M132.2,7.3c-1.6,0-2.8,1.3-2.8,3.2c0,1.4,0.7,2.2,1.9,2.2c0.7,0,1.2-0.2,1.7-0.6
		l0.8-4.2C133.5,7.5,132.9,7.3,132.2,7.3z"/>
	<path class="st0" d="M144.1,9.2c-0.4,0-1,0-1.5-0.1l-0.9,4.6h-1.4l2.5-12.9c0.6-0.1,1.3-0.2,2.1-0.2c3.2,0,4.7,1.8,4.7,3.9
		C149.6,7.3,147.7,9.2,144.1,9.2z M145.1,1.9c-0.5,0-0.8,0-1.1,0.1l-1.1,5.8c0.5,0.1,0.9,0.1,1.4,0.1c2.6,0,3.9-1.5,3.9-3.3
		C148.2,3.2,147.2,1.9,145.1,1.9z"/>
	<path class="st0" d="M155.5,9.5l-0.8,4.2h-1.3l0.1-0.7c-0.6,0.5-1.3,0.9-2.2,0.9c-1.2,0-2.2-0.8-2.2-2.2c0-1.4,1.2-2.5,3-2.5
		c0.9,0,1.6,0.3,2,0.6l0.1-0.5c0-0.1,0.1-0.4,0.1-0.6c0-0.7-0.5-1.3-1.4-1.3c-0.5,0-1.2,0.1-1.9,0.4l-0.1-1.2
		c0.7-0.2,1.5-0.4,2.2-0.4c1.4,0,2.6,0.6,2.6,2.4C155.6,8.8,155.6,9.2,155.5,9.5z M152.1,10.2c-0.9,0-1.7,0.5-1.7,1.4
		c0,0.7,0.4,1.2,1.3,1.2c0.8,0,1.4-0.4,1.9-0.9l0.2-1C153.5,10.5,152.8,10.2,152.1,10.2z"/>
	<path class="st0" d="M162.8,14.4c-0.4,2.3-1.9,3.3-3.8,3.3c-0.7,0-1.6-0.2-2.4-0.5l0.4-1.2c0.7,0.2,1.3,0.4,2,0.4
		c1.3,0,2.1-0.5,2.3-1.9l0.2-1.2c-0.5,0.3-1,0.5-1.7,0.5c-1.7,0-3.1-1.4-3.1-3.1c0-2.4,1.8-4.6,4.2-4.6c0.7,0,1.5,0.3,1.9,0.6
		l0.1-0.4h1.3L162.8,14.4z M161.1,7.3c-1.6,0-2.8,1.3-2.8,3.2c0,1.4,0.8,2.2,2,2.2c0.7,0,1.1-0.2,1.6-0.6l0.8-4.2
		C162.3,7.5,161.7,7.3,161.1,7.3z"/>
	<path class="st0" d="M165.4,10.8c0-2.2,1.7-4.7,4.2-4.7c1.8,0,2.7,1.4,2.7,2.9c0,0.4-0.1,0.8-0.2,1.2h-5.4c0,0.1,0,0.3,0,0.4
		c0,1.4,0.8,2,2.1,2c0.6,0,1.2-0.1,1.9-0.4l0.2,1.1c-0.7,0.3-1.2,0.4-2.3,0.4C166.9,13.9,165.4,13,165.4,10.8z M170.9,9.2
		c0-0.1,0-0.2,0-0.4c0-0.9-0.6-1.5-1.5-1.5c-1,0-1.9,0.8-2.4,1.9H170.9z"/>
	<path class="st0" d="M177.9,7.9c-0.4-0.3-0.9-0.6-1.5-0.6c-0.9,0-1.4,0.4-1.4,1c0,0.5,0.6,0.8,1.3,1.1c1,0.5,1.6,0.9,1.6,2
		c0,1.5-1.3,2.4-2.7,2.4c-0.9,0-1.9-0.4-2.5-1l0.8-1c0.5,0.4,1.2,0.8,1.8,0.8c0.9,0,1.4-0.4,1.4-1.1c0-0.6-0.6-0.8-1.3-1.2
		c-0.9-0.4-1.5-0.8-1.5-1.9c0-1.4,1.3-2.4,2.8-2.4c0.8,0,1.5,0.3,2,0.7L177.9,7.9z"/>
	<path class="st0" d="M180,13.9c-0.5,0-0.9-0.4-0.9-0.9c0-0.5,0.4-0.9,0.9-0.9s0.9,0.4,0.9,0.9C180.8,13.5,180.5,13.9,180,13.9z"/>
	<path class="st0" d="M183.9,13.9c-0.5,0-0.9-0.4-0.9-0.9c0-0.5,0.4-0.9,0.9-0.9s0.9,0.4,0.9,0.9C184.7,13.5,184.3,13.9,183.9,13.9z
		"/>
	<path class="st0" d="M187.8,13.9c-0.5,0-0.9-0.4-0.9-0.9c0-0.5,0.4-0.9,0.9-0.9s0.9,0.4,0.9,0.9C188.6,13.5,188.2,13.9,187.8,13.9z
		"/>
</g>
<path class="st0" d="M10.2,8.2c0,0.5-0.3,0.9-0.8,0.9H4.7l2,2C6.9,11.2,7,11.4,7,11.6s-0.1,0.4-0.3,0.6l-0.5,0.5
	C6,12.9,5.8,13,5.6,13c-0.2,0-0.4-0.1-0.6-0.2L0.6,8.4C0.5,8.2,0.4,8,0.4,7.8s0.1-0.4,0.2-0.6L5,2.8c0.2-0.2,0.4-0.3,0.6-0.3
	c0.2,0,0.4,0.1,0.6,0.3l0.5,0.5C6.9,3.5,7,3.7,7,3.9S6.9,4.4,6.7,4.5l-2,2h4.7c0.5,0,0.8,0.4,0.8,0.9V8.2z"/>
</svg>
