<?xml version="1.0" encoding="utf-8"?>
<!-- Generator: Adobe Illustrator 18.1.0, SVG Export Plug-In . SVG Version: 6.00 Build 0)  -->
<svg version="1.1" id="Layer_1" xmlns="http://www.w3.org/2000/svg" xmlns:xlink="http://www.w3.org/1999/xlink" x="0px" y="0px"
	 viewBox="0 292.8 133.4 206.3" enable-background="new 0 292.8 133.4 206.3" xml:space="preserve">
<g>
	
		<radialGradient id="SVGID_1_" cx="66.437" cy="689.05" r="84.7617" gradientTransform="matrix(1.02 0 0 -1.02 0 1098.7799)" gradientUnits="userSpaceOnUse">
		<stop  offset="0.1656" style="stop-color:#FFFFFF"/>
		<stop  offset="0.2982" style="stop-color:#F6EEE5"/>
		<stop  offset="0.6852" style="stop-color:#DEBF9C"/>
		<stop  offset="0.865" style="stop-color:#D5AD80"/>
	</radialGradient>
	<path fill="url(#SVGID_1_)" d="M64.7,496.1c0.7,1,2.2,3.1,3.1,3.1c0.8,0,2.3-2,3.1-3.1c43.2-10.1,67.3-75.8,61.8-129.2
		c-1.1-10.9-3.5-20.5-6.8-28.7c-0.1-0.2-0.5-1.1-0.5-1.3c-2.8-6.3-6.2-11.7-10.1-16C108,313,99,308.6,89.3,308.5c-0.3,0-0.2,0-0.2,0
		c-1.6-3.5-5.8-5.9-9.7-6.4c0,0-2.2-9.3-11.5-9.3c-9.5,0.1-11.7,9.4-11.7,9.4c-3.9,0.5-8.1,3-9.6,6.4c0,0,0.2,0-0.2,0
		c-9.9,0.1-18.8,4.5-25.9,12.3c-4,4.3-7.3,9.7-10.1,16c-0.1,0.2-0.5,1-0.5,1.3C6.4,346.4,4,356,3,366.9
		C-2.7,420.4,21.4,486.1,64.7,496.1z"/>
</g>
<path fill="#262425" d="M132.6,366.9c-1.1-10.9-3.5-20.5-6.8-28.7c-0.1-0.2-0.5-1.1-0.5-1.3c-2.8-6.3-6.2-11.7-10.1-16
	c-7.1-7.9-16.1-12.2-25.9-12.3c-0.3,0-0.2,0-0.2,0c-1.6-3.5-5.8-5.9-9.7-6.4c0,0-2.2-9.3-11.5-9.3c-9.5,0-11.7,9.3-11.7,9.3
	c-3.9,0.5-8.1,3-9.6,6.4c0,0,0.2,0-0.2,0c-9.9,0.1-18.8,4.5-25.9,12.3c-4,4.3-7.3,9.7-10.1,16c-0.1,0.2-0.5,1-0.5,1.3
	C6.4,346.4,4,356,3,366.9c-5.6,53.4,18.5,119.1,61.7,129.1c0.7,1,2.2,3.1,3.1,3.1c0.8,0,2.3-2,3.1-3.1
	C113.9,486.1,138,420.4,132.6,366.9z M130.7,367.1c0.1,0.7,0.1,1.3,0.2,2c-2,0-4.1,0.3-6,1c-1.4-16.6-5.9-30.4-12.6-39.7
	c1.3-1.6,3.2-3,5-3.9C124.2,336.4,128.9,350.2,130.7,367.1z M46.3,328.6c-1.5,0.4-1.6,3.1-1.4,4.8c0.3,1.9,1.3,4,2.4,3.8
	c2.1-0.3,3.8-4.8,3.6-8.2c-0.2-4.8-2.9-6-4.5-6c-2.5,0-4.5,4.1-4.5,9.4c0,5.3,1.9,9.4,4.5,9.4c1,0.1,20.8,2.8,19.3-14.5
	c-0.7-8.2-5.7-14-10.3-16.7c4.4-2.7,10,1.9,11.6,7.5c0.3,1.1,1,1.1,1.3-0.1c1.8-5.8,6.7-10.1,11-7.4c-4.6,2.8-9.1,8.6-9.8,16.7
	c-1.5,17.3,18.4,14.7,19.4,14.6c2.6,0,4.5-4.1,4.5-9.4c0-5.3-1.9-9.4-4.5-9.4c-1.5,0-4.2,1.2-4.5,6c-0.2,3.4,1.4,7.9,3.6,8.2
	c1.1,0.1,2.1-1.8,2.4-3.8c0.3-1.7,0.1-4.4-1.4-4.8c-0.5-0.1-1,0.2-1.1,0.6s0.9,1.2,0.9,3.2c-0.1,3-3.1,1.4-2.7-3.3
	c0.3-4.2,2.4-3.9,2.6-3.9c1.2,0,3,2.4,3,7.1c0,4.1-2,8.6-5.8,6.2c-3.2-2.3-4.5-7.8-3.6-11.9c0.4-1.9,2-7.1,7.4-7.1
	c7.5,0,14.7,4,20.4,11.3l0,0h0.1l0.1,0.1c-0.5,1.8-3.7,9.1-16.4,16.5l0,0c-4.3-2.8-9.3-3.9-13.8-3.9c-7,0-9.2,2.1-12.4,2.1h-0.1
	h-0.1c-3.3,0-5.4-2.1-12.4-2.1c-4.5,0-9.5,1.1-13.8,3.9c0,0,0,0-0.1,0c-12.6-7.3-15.8-14.4-16.4-16.4c5.7-7.5,13-11.5,20.6-11.5
	c5.3,0,7,5.2,7.3,7.1c0.9,4.2-0.4,9.6-3.6,11.9c-3.8,2.3-5.8-2.1-5.8-6.2c0-4.7,1.8-7.1,3-7.1c0.1,0,2.2-0.3,2.5,3.9
	c0.4,4.7-2.5,6.2-2.7,3.3c0-1.9,1-2.8,0.9-3.2C47.2,328.8,46.7,328.5,46.3,328.6z M111.4,332.4c6.5,9.1,11,22.7,11.8,40
	c-2.2,1.2-7.2,3.4-13.8,4c-1.4-9-5.2-21.2-14.3-27.8C106.7,341.6,110.3,335.2,111.4,332.4z M40.2,348.5
	c-9.1,6.6-12.7,18.9-14.3,27.8c-6.4-0.6-11.3-2.8-13.7-4c1-17.2,5.4-30.8,11.7-39.9C25.1,335.4,28.8,341.7,40.2,348.5z M25.7,377.5
	c-0.5,3.3-0.7,6.1-0.7,7.9c-0.1,2.8-0.1,5.6,0,8.4c0,0.5,0.1,1.1,0.1,1.6v0.4c0.3,5.4,1.1,10.9,2.2,16.3l0.1,0.5
	c2.1,9.5,5,16.4,6.1,18.9c2,4.4,4,8.4,6,11.9c-4.1,3.7-10.1,5.1-12.1,5.5c-10.9-21.7-16.5-49.9-15.3-75.2
	C14.7,375,19.5,376.9,25.7,377.5z M40.3,444.6c7.2,12.5,14.5,20,20,24c-2,5.1-6.7,9-8.4,10.3c-9.5-6.3-17.5-16.5-23.8-28.7
	C30.5,449.5,36.2,448.1,40.3,444.6z M61.3,469.2L61.3,469.2c3.1,2.2,6.1,3.5,6.4,3.5c0.2-0.1,3.4-1.3,6.3-3.5c0.1,0,0.1-0.1,0.2-0.1
	c2,4.9,6.2,8.7,8.3,10.3c-2.8,1.7-5.6,3.2-8.6,4.3c0-0.1,0-0.2,0-0.3c-0.6-3.2-4.8-3.8-6.2-3.8s-5.6,0.6-6.2,3.8c0,0.1,0,0.2,0,0.3
	c-3-1.1-5.7-2.4-8.5-4.2C54.9,477.9,59.3,474.1,61.3,469.2z M75.3,468.3c5.5-4,12.6-11.5,19.9-24c3.9,3.5,9.4,5.1,11.9,5.6
	c-6.1,12.2-14.1,22.3-23.5,28.8C81.9,477.3,77.2,473.3,75.3,468.3z M95.8,443.2c2-3.6,4-7.4,5.9-11.8c1.1-2.5,4-9.4,6.1-18.9
	l0.1-0.5c1.1-5.4,1.9-10.9,2.2-16.3v-0.4c0-0.5,0.1-1.1,0.1-1.6c0.1-2.8,0.1-5.6,0-8.4c-0.1-1.7-0.3-4.5-0.7-7.9
	c6.2-0.5,11-2.6,13.6-3.8c0.9,25.3-4.6,53.3-15.4,75.2C105.4,448.3,99.7,446.8,95.8,443.2z M88.6,310.7c11.1,0,20.6,5.3,27.8,14.9
	c-1.9,0.9-3.7,2.2-5.1,3.9c-5.8-7.5-13.1-11.7-21.3-11.8c-5,0-8.5,3.8-9.5,8.7c-0.8,4,0,8.9,2.4,12c1.2,1.3,0.7,1.7,0.3,1.7
	c-3.3,0.1-12.8-2-11.8-12.8c0.6-6.9,4-11.5,7.9-14.3C82.9,311,86.9,310.7,88.6,310.7z M67.7,294.6c7.5,0,9.3,7.3,9.3,7.4
	c-0.5,0-1,0.1-1.5,0.2l-1.4,0.4c-2.5,0.8-4.8,2.7-6.2,5c0,0.1-0.1,0.2-0.2,0.3c-0.1-0.1-0.2-0.2-0.2-0.3c-1.4-2.4-3.6-4.2-6.1-5
	l-1.4-0.4c-0.5-0.1-1-0.2-1.5-0.2C58.3,302,60.1,294.6,67.7,294.6z M57.7,303.4c4.3,0,8.1,2.8,9.4,6.8c0.3,1,0.9,1,1.2,0
	c1.3-4.1,5.1-6.8,9.4-6.8c3.7,0,7,2.1,8.8,5.4c-1.2,0.2-2.7,0.6-4.1,1.1c-2.5-2.1-5-2.1-6.6-1.6c-3.5,1-6.4,4.6-8,7.6l-0.1,0.1
	c0,0-0.1,0-0.1-0.1c-1.5-3.1-4.4-6.6-8-7.6c-1.6-0.5-4.1-0.5-6.6,1.6c-1.4-0.5-2.8-0.9-4.1-1.1C50.6,305.5,54,303.4,57.7,303.4z
	 M46.7,310.7c1.6,0,5.6,0.3,9.2,2.4c3.9,2.8,7.2,7.3,7.9,14.3c0.9,10.7-10,12.3-12,12.3c-0.3,0-0.5-0.3,0.6-1.4
	c2.6-3.2,3.3-8.2,2.4-12c-1-4.9-4.5-8.8-9.5-8.7c-8.3,0-15.6,4.3-21.4,11.8c-1.4-1.6-3.2-3-5-3.9C26.1,316,35.7,310.7,46.7,310.7z
	 M4.7,367.1c1.7-16.9,6.4-30.7,13.4-40.5c1.9,0.9,3.7,2.2,5,3.9c-6.7,9.3-11.2,23.1-12.6,39.7c-1.8-0.7-4-1.1-6-1
	C4.6,368.5,4.6,367.8,4.7,367.1z M16.8,446.2c-10-23-14.5-50.4-12.4-75.7c2-0.1,4.1,0.3,6,1.1c0,0.5-0.1,1-0.1,1.5
	c-1.5,25.2,4,53.2,14.8,75.3c-2.1,0.5-4.2,1.3-5.9,2.7C18.4,449.4,17.5,447.8,16.8,446.2z M19.7,452.2c1.7-1.3,3.9-2.2,5.9-2.7
	c6.3,12.4,14.4,23,23.9,29.8c-1.6,1.4-3,3.3-3.9,5.2C35.6,477.4,26.7,466.4,19.7,452.2z M46.7,485.4c0.8-2,2.2-3.8,3.9-5.2
	c3.4,2.3,6.9,4.2,10.6,5.5c-0.1,2.8,0.6,5.3,1.5,7.3C57.2,491.5,51.8,488.9,46.7,485.4z M68.4,496c0,0-0.4,0.5-0.8,0.5
	c-0.4,0-0.7-0.5-0.8-0.5c-1.8-2.3-4.6-6.8-3.6-12.2c0.3-1.5,2.9-2.2,4.4-2.2c1.4,0,4.1,0.7,4.4,2.2C73.1,489.1,70.4,493.6,68.4,496z
	 M72.6,493c0.9-2,1.6-4.6,1.5-7.3c3.8-1.3,7.2-3.2,10.6-5.5c1.7,1.4,3.1,3.3,3.9,5.2C83.6,488.8,78.2,491.5,72.6,493z M89.8,484.5
	c-0.9-1.9-2.2-3.8-3.9-5.2c9.5-6.8,17.5-17.3,23.9-29.8c2.1,0.4,4.2,1.3,5.9,2.7C108.6,466.3,99.9,477.3,89.8,484.5z M118.5,446.2
	c-0.7,1.6-1.4,3.3-2.2,4.8c-1.7-1.3-3.8-2.2-5.9-2.7c10.8-22,16.3-50.1,14.8-75.3c0-0.5-0.1-1-0.1-1.5c1.8-0.8,4-1.1,6-1.1
	C133,395.9,128.5,423.2,118.5,446.2z"/>
<linearGradient id="SVGID_2_" gradientUnits="userSpaceOnUse" x1="66.3" y1="616.2" x2="66.3" y2="738.2" gradientTransform="matrix(1.02 0 0 -1.02 0 1098.7799)">
	<stop  offset="1.226990e-002" style="stop-color:#891C21"/>
	<stop  offset="3.047632e-002" style="stop-color:#931E23"/>
	<stop  offset="8.241532e-002" style="stop-color:#A92027"/>
	<stop  offset="0.1419" style="stop-color:#BB2029"/>
	<stop  offset="0.2124" style="stop-color:#C8202A"/>
	<stop  offset="0.3049" style="stop-color:#D0202B"/>
	<stop  offset="0.5031" style="stop-color:#D2202B"/>
	<stop  offset="0.6702" style="stop-color:#CF202B"/>
	<stop  offset="0.7771" style="stop-color:#C6202A"/>
	<stop  offset="0.867" style="stop-color:#B72028"/>
	<stop  offset="0.947" style="stop-color:#A21F25"/>
	<stop  offset="1" style="stop-color:#911D22"/>
</linearGradient>
<path fill="url(#SVGID_2_)" d="M108.2,385.7c-0.3-6.4-2.1-28.1-15.4-36.5c-3-1.9-6.8-3.2-10.4-3.4c-0.5,0-0.9,0-1.4,0
	c-3.5,0-6.4,0.8-8.9,1.4c-1.6,0.4-3.2,0.8-4.4,0.9h-0.2c-1.2,0-2.7-0.4-4.4-0.9c-2.4-0.6-5.4-1.4-8.9-1.4c-0.5,0-1,0-1.4,0
	c-3.7,0.2-7.4,1.4-10.4,3.4c-13.3,8.5-15.2,30.1-15.4,36.5c-0.9,22.6,5.9,40.6,8.2,45.5c9.2,20.3,20.6,33.8,31.6,38.7l0.9,0.4
	l0.9-0.4c11-4.9,22.3-18.4,31.6-38.7C102.3,426.3,109.1,408.3,108.2,385.7z"/>
<path fill="#FFFFFF" d="M87.3,370v4.4l0.9-0.1c0,0,0.2,0,0.4,0c0.5,0,1.4,0.1,1.9,0.6c0.5,0.5,0.7,1.4,0.5,2.7
	c0,0-8.9,38.3-10.5,45.6c-1.9-9.2-12.4-59.5-12.4-59.5v-0.2h-2v0.2c0,0-7.6,49-9.1,58.8c-1.9-8.5-10.4-44.8-10.4-44.8
	c0-0.2,0-0.4,0-0.6c0-1,0.2-1.7,0.7-2.2c0.6-0.6,1.6-0.5,1.7-0.5l0.9,0.1v-4.3H34.9v4.2l0.6,0.1c0.3,0.1,1.9,0.5,2.2,1.9
	c0,0,17.2,74.1,18,77.2v0.2h2.5v-0.2c0.1-0.5,7.1-46.5,8.5-55.1c1.6,8.6,10.6,54.6,10.7,55.1v0.2h2.3l17.1-77.4
	c0.4-1.6,1.8-1.7,2.3-1.7c0.1,0,0.1,0,0.2,0l0.8,0.1v-4.5h-13V370z"/>
</svg>
